inDegrees=no
num_controls=7
num_derivatives=13
num_iterations=148
num_multipliers=7
num_parameters=0
num_slacks=7
num_states=26
objective=0.229302
objective_accelerations=0.000000
objective_balance=0.003767
objective_effort=0.044311
objective_height=0.172369
objective_ligament=0.008856
solver_duration=2132.600622
status=Solve_Succeeded
success=true
DataType=double
version=3
OpenSimVersion=4.5
endheader
time	/jointset/ground_pelvis/pelvis_tilt/value	/jointset/ground_pelvis/pelvis_tx/value	/jointset/ground_pelvis/pelvis_ty/value	/jointset/hip_l/hip_flexion_l/value	/jointset/hip_l/hip_adduction_l/value	/jointset/hip_l/hip_rotation_l/value	/jointset/back/lumbar_extension/value	/jointset/patellofemoral_l/patellar_flexion_l/value	/jointset/knee_l/knee_flexion_l/value	/jointset/knee_l/knee_adduction_l/value	/jointset/knee_l/knee_rotation_l/value	/jointset/ankle_l/ankle_angle_l/value	/jointset/subtalar_l/subtalar_angle_l/value	/jointset/ground_pelvis/pelvis_tilt/speed	/jointset/ground_pelvis/pelvis_tx/speed	/jointset/ground_pelvis/pelvis_ty/speed	/jointset/hip_l/hip_flexion_l/speed	/jointset/hip_l/hip_adduction_l/speed	/jointset/hip_l/hip_rotation_l/speed	/jointset/back/lumbar_extension/speed	/jointset/patellofemoral_l/patellar_flexion_l/speed	/jointset/knee_l/knee_flexion_l/speed	/jointset/knee_l/knee_adduction_l/speed	/jointset/knee_l/knee_rotation_l/speed	/jointset/ankle_l/ankle_angle_l/speed	/jointset/subtalar_l/subtalar_angle_l/speed	/forceset/tau_hip_flexion_l	/forceset/tau_hip_adduction_l	/forceset/tau_hip_rotation_l	/forceset/tau_knee_flexion_l	/forceset/tau_ankle_angle_l	/forceset/tau_subtalar_angle_l	/forceset/tau_lumbar_extension	lambda_cid13_p0	lambda_cid13_p1	lambda_cid13_p2	lambda_cid13_p3	lambda_cid13_p4	lambda_cid13_p5	lambda_cid14_p0	/jointset/ground_pelvis/pelvis_tilt/accel	/jointset/ground_pelvis/pelvis_tx/accel	/jointset/ground_pelvis/pelvis_ty/accel	/jointset/hip_l/hip_flexion_l/accel	/jointset/hip_l/hip_adduction_l/accel	/jointset/hip_l/hip_rotation_l/accel	/jointset/back/lumbar_extension/accel	/jointset/patellofemoral_l/patellar_flexion_l/accel	/jointset/knee_l/knee_flexion_l/accel	/jointset/knee_l/knee_adduction_l/accel	/jointset/knee_l/knee_rotation_l/accel	/jointset/ankle_l/ankle_angle_l/accel	/jointset/subtalar_l/subtalar_angle_l/accel	gamma_cid13_p0	gamma_cid13_p1	gamma_cid13_p2	gamma_cid13_p3	gamma_cid13_p4	gamma_cid13_p5	gamma_cid14_p0
1.5	-0.2135543421700383	-0.01778370303944003	0.3562902768241355	2.181639141919617	-0.2225402847334729	0.503107338581992	-0.4362781239506897	2.180855906327787	2.180855906327804	0.08526720841631567	-0.1394207144786591	0.4363126014977059	0.4535898583597311	-0.1995387651405908	-0.02933795872721933	0.01144832914877094	0.0005313357314561829	0.3450101278722285	0.2637297367007819	-6.446866451190848e-05	-0.03338192926792576	-0.03338192926792481	-0.05437182964211666	0.6459576277938426	-0.0009368824504603142	0.6007158593937683	-0.08247111313649354	-0.04277397324095109	-0.008441913020811256	-0.4381309870796726	0.110954840577334	0.02718016005885947	0.1057842436252948	4.373275948144697	-1.379889985731874	-12.84289777416901	-11.47138207052266	-478.9501014144325	-186.8253774912	-0.0149748625183549	-1.253262876948269	-0.0159679598653053	0.4754616871858024	-0.2066829765460091	-0.9864150798464653	-1.750913893653205	-0.2422267478318951	-1.303402537649002	-1.303402537648995	0.3144543512002742	-0.6257985835404924	-0.06941893171258812	-1.635450343999751	1.416471359951934e-07	-5.689831549315547e-07	-6.054838148490403e-07	-1.146821684454444e-07	-1.642684000305517e-07	-2.152727475553682e-06	3.366348706014996e-07
1.51	-0.2156086238494577	-0.01807554660213392	0.3564308650176464	2.181636453654092	-0.2191761152950215	0.5055946699657822	-0.4362882741799391	2.180448720619532	2.180448720619561	0.0847698546853114	-0.1330393149169963	0.4363007506247829	0.4594528629968911	-0.2110263520978226	-0.02880609961944555	0.0168927775721261	-0.000738617077823843	0.3242096764762322	0.2281527269079921	-0.001619507238557077	-0.0489365027482991	-0.04893650274830018	-0.04261112400998319	0.6253795224696667	-0.001283217475789036	0.5657192443273534	-0.08574645518419947	-0.04498067337536363	-0.008905187373871144	-0.4421556545495357	0.1141691888583982	0.0268736918471723	0.1095582770797003	4.670933302144453	-0.6376880643097993	-13.71650271195848	-13.68209852778954	-485.7516935034704	-187.5595869162173	-0.01463835003700524	-1.053222013708298	0.1215507466257866	0.6125673808012421	-0.03798999653957737	-3.168993531572185	-5.29871389883784	-0.06023192051765011	-1.813452353924319	-1.813452353924613	1.980060997853725	-3.515365841311949	0.004848726028552436	-5.356568957903224	-1.392490804607387e-06	-2.960404331447575e-07	-1.753855203547592e-07	2.572543936313045e-07	3.096503623752894e-07	1.92343427767067e-07	-6.311925016760031e-07
1.52	-0.2177691244801694	-0.0183553139936446	0.3566326238875689	2.181630898147766	-0.2161283770429496	0.5075587073762945	-0.436303592696565	2.179859595656335	2.179859595656374	0.08446474447635186	-0.1270120062754659	0.4362898543043897	0.4647809411093987	-0.2207825553989617	-0.02692272449057536	0.02368246443110883	-4.211242392770508e-05	0.2817238905963967	0.1590709420453634	-0.00109812614567561	-0.06976978025638497	-0.06976978025638801	-0.01592312523249621	0.5751394437672583	-0.0007459719422538463	0.4937305544633037	-0.08902179723190402	-0.04718737350977659	-0.009368461726937645	-0.4461803220193996	0.1173835371394612	0.02656722363548331	0.1133323105341065	4.969462271107385	0.09447332959677437	-14.57720274659129	-15.87151838489173	-492.6009068232402	-188.2066137703897	-0.01431332741704469	-0.9069861457297713	0.2543352443540073	0.7445093743113211	0.186608516089203	-5.323481976614332	-8.451868907620987	0.1730571855534654	-2.359143343191487	-2.359143343191468	3.299912980270974	-6.55819325918698	0.1072971800602961	-9.033865303526685	-3.292959690820813e-06	-9.03332230926189e-08	3.824538458573805e-07	8.297468556471235e-07	8.27413567064155e-07	2.820664712912878e-06	-1.793712174164094e-06
1.53	-0.2200140711960345	-0.01861026699999371	0.3569109840747942	2.181637861184337	-0.2136245554470309	0.5086619476236758	-0.4363089087546508	2.179028481949157	2.179028481949194	0.08449347587333024	-0.121657958118979	0.4362880056498168	0.4691838014885604	-0.2274519158985019	-0.02392668799088984	0.03241785997020899	0.001191970569354875	0.2145906934390123	0.05652465180162342	-0.000203437200122751	-0.09801183367458609	-0.09801183367459007	0.02285020315340234	0.4885899387865001	0.0004555711453014766	0.3790504172310997	-0.09518734811842303	-0.04889381043181595	-0.0100406566939539	-0.4523794487148988	0.1185083957601282	0.02520296515978399	0.11907416532648	3.99865340191524	1.503441815270974	-15.54027824162885	-15.69894090308198	-503.2841346601181	-188.4671277211887	-0.01395121667502952	-0.4348875567504001	0.3438233499928342	1.002636464653442	0.05419232426686995	-8.075944769627386	-11.91401936818478	0.01192198996405054	-3.289787976510861	-3.28978797651102	4.343040470438981	-10.76546197406286	0.1371602975269506	-13.85378214610889	-5.582655206745758e-06	4.393625574144561e-08	1.076018100769744e-06	1.615329961348203e-06	1.391761491678734e-06	5.749939528747812e-06	-3.163092415625933e-06
1.54	-0.2223033068278318	-0.01883094254190254	0.3572896145815991	2.181649641877455	-0.2119256070595514	0.5085881229115323	-0.4363124284750824	2.177868337380721	2.177868337380755	0.08494534009470341	-0.1173818315836078	0.4363002879109721	0.4722061216527917	-0.2296403385854137	-0.02006723160251556	0.04373652834706016	0.0009214188953987163	0.1207492489085517	-0.07634204985948811	-0.0007388586182560242	-0.1355759525078451	-0.1355759525078506	0.06870343964688816	0.3595551195440367	0.002080211209809626	0.2176225114772302	-0.1013528990049392	-0.05060024735385539	-0.01071285166097425	-0.4585785754103988	0.1196332543807941	0.02383870668408367	0.1248160201188563	3.066134157379198	2.85311669118744	-16.43382907843811	-15.54277724213211	-514.0627776799411	-188.5934311896952	-0.01361316606724511	-0.01079858320406845	0.4270192220917716	1.261163941861548	-0.1143184173586771	-10.66513145122961	-14.5159511910953	-0.1129648871835949	-4.223556426203087	-4.223556426203184	4.715894601788412	-15.055256111528	0.1919165754509291	-18.38341900785974	-6.123904585699196e-06	-6.030538808850901e-07	1.31302070414099e-06	1.838652628599836e-06	1.494890418434488e-06	4.866122709093321e-06	-3.398335000463312e-06
1.55	-0.2246048851713445	-0.01901269368815718	0.3577948512480687	2.181654032918998	-0.2112733537540998	0.5070355243490956	-0.4363202739230715	2.176281789251498	2.176281789251525	0.08590122196638168	-0.1145587447474385	0.4363241885393399	0.473418171302756	-0.2311636963153277	-0.01653762212823713	0.05780773469924361	-0.0001878217665804309	0.007921664446826203	-0.23833445489228	-0.0003152117317528271	-0.1836313826604888	-0.1836313826604885	0.1241082816363439	0.2029066311259268	0.002015579596052374	0.02101591693542778	-0.1104425940949491	-0.04947168179516435	-0.01169352868381453	-0.4677154306233021	0.1143385172081297	0.02232316344243607	0.131954145458819	-0.3520488689935092	4.254125903626906	-16.82201269370432	-9.22476206439568	-527.6342559131728	-190.1206571790892	-0.01361112799870173	-0.2969831503426769	0.2779738022306749	1.554804181555473	-0.1315426606806724	-11.85890027248253	-17.66459131987033	0.1972823653210621	-5.3808463910988	-5.380846391097831	6.198027339321889	-16.29331172762358	-0.2092367196769237	-20.86454280775972	-4.650639937272531e-06	-2.150190965759659e-06	1.023984882910543e-06	1.414153486333665e-06	1.066614847657277e-06	-4.11038821016136e-07	-2.3268537635378e-06
1.56	-0.2269364728486474	-0.01916674034124204	0.3584557410179918	2.181642868400073	-0.2118028419590331	0.5037382605042313	-0.4363084323245376	2.174157824804487	2.174157824804508	0.08746020192631182	-0.1133668760995847	0.4363267261136521	0.4725511023812183	-0.2356422053435493	-0.0145263329685604	0.07486714903775711	-0.002189693231086156	-0.1155990531684406	-0.4252751063450406	0.003198550704898774	-0.243059216065284	-0.243059216065276	0.1893230572977092	0.03331148188097263	-0.002192399613219851	-0.1982012028231444	-0.11953228918496	-0.04834311623647258	-0.01267420570666097	-0.4768522858362058	0.1090437800354655	0.02080762020079025	0.1390922707987824	-3.686990718843558	5.564656076692337	-17.10909465513095	-2.96639897194234	-541.3881346423263	-191.4000768691816	-0.01363292578142901	-0.6018288428656094	0.1233551591714245	1.858805539127564	-0.2928445778639941	-12.80375808193787	-19.50560047508904	0.5050582228461559	-6.498037076633376	-6.498037076633096	6.677881336170343	-17.64458827689685	-0.6367529436520812	-22.90552405121369	-5.243370915432092e-06	-4.895527271084101e-06	3.799551752409184e-06	1.723225297940332e-06	1.270587125238075e-06	-9.308084642910205e-07	-3.386534719319213e-06
